<?xml version="1.0" encoding="utf-8"?>
<!-- Generator: Adobe Illustrator 23.0.1, SVG Export Plug-In . SVG Version: 6.00 Build 0)  -->
<svg version="1.1" id="Layer_1" xmlns="http://www.w3.org/2000/svg" xmlns:xlink="http://www.w3.org/1999/xlink" x="0px" y="0px"
	 viewBox="0 0 1920 1080" style="enable-background:new 0 0 1920 1080;" xml:space="preserve">
<g>
	<g>
		<path d="M1079.1,334.9c-3.6,4.5-8.7,5-13.9,5c-25.7,0-51.3-0.2-77,0.1c-9.7,0.1-15.1-2.8-15.1-13.9c0.1-11.6,7-11.9,15.3-11.8
			c25.2,0.1,50.5,0,75.7,0c5.2,0,10.3,0.1,15,2.6C1079.1,322.9,1079.1,328.9,1079.1,334.9z"/>
		<path d="M1079.1,296.3c-4.1,2.7-8.8,3-13.6,3c-26.1,0-52.1-0.1-78.2,0c-8.1,0-14.1-1.1-14.2-11.6c-0.2-10.8,5.3-12.8,14.4-12.7
			c26.1,0.3,52.1,0.1,78.2,0.1c4.7,0,9.5-0.1,13.4,3.1C1079.1,284.4,1079.1,290.4,1079.1,296.3z"/>
		<path d="M390.6,314.3c29.5,0,58.9,0.1,88.4,0c8.8,0,14.8,1.7,14.8,12.6c0,10.5-5.3,13.1-14.4,13.1c-59.4-0.1-118.7-0.1-178.1,0
			c-9,0-14.4-2-14.5-12.8c-0.1-10.7,5-13,14.1-13C330.8,314.4,360.7,314.3,390.6,314.3z"/>
		<path d="M651.2,339.9c-29,0-58.1-0.2-87.1,0.1c-9.9,0.1-15-3-14.9-14c0.1-10.4,5.9-11.8,14.1-11.7c27.8,0.1,55.5,0,83.3,0
			c31.2,0,62.4,0.1,93.5,0c9.1,0,15.8,1.3,15.7,13c-0.1,11.9-7.3,12.7-16.2,12.7C710.1,339.8,680.7,339.9,651.2,339.9z"/>
		<path d="M945.9,518.9c33,0,65.9,0.1,98.9-0.1c8.1,0,14.2,0.7,14.3,11.3c0.1,10.7-5.7,12.9-14.6,12.9c-66.3-0.1-132.7-0.1-199,0
			c-8.7,0-13.5-2.5-13.5-12.4c0-10.3,5.4-11.8,13.9-11.8C879.1,519.1,912.5,518.9,945.9,518.9z"/>
		<path d="M400.8,584.1c-27,0-53.9-0.1-80.9,0.1c-8.4,0.1-14.1-1.9-14-12c0.1-9.7,4.2-13.8,14-13.7c53.5,0.2,107,0.2,160.5,0.1
			c8.9,0,13.3,3.3,13.4,12.9c0.1,9.7-4.5,12.8-13.3,12.8C453.9,584,427.4,584.1,400.8,584.1z"/>
		<path d="M945.6,584.2c-26.5,0-53-0.2-79.4,0.1c-9.2,0.1-14.2-2.3-14.1-13c0.1-10.8,5.6-12.8,14.5-12.8c52.5,0.1,105.1,0.1,157.6,0
			c8.8,0,14.6,1.5,14.8,12.5c0.2,11.7-5.8,13.3-15.2,13.2C997.7,584,971.6,584.2,945.6,584.2z"/>
		<path d="M390.6,543c-29.9,0-59.9-0.2-89.8,0.1c-9.4,0.1-14.3-2.7-13.9-13.2c0.3-8.5,4-11,11.9-11c27.4,0.2,54.7,0.1,82.1,0
			c32.5,0,65,0.1,97.5,0c8.1,0,15.4-0.4,15.5,11.4c0.1,11.9-7.1,12.8-16,12.8C448.7,542.9,419.6,543,390.6,543z"/>
		<path d="M663.4,396.3c25.6,0,51.3,0,76.9,0c8.2,0,15.4,0.1,15.5,11.7c0.1,10.8-4.8,14.2-14.8,14.2c-52.5-0.2-105.1-0.2-157.6,0
			c-9.5,0-13.9-3-14-13.3c-0.1-11,5.7-12.6,14.6-12.5C610.5,396.5,636.9,396.3,663.4,396.3z"/>
		<path d="M398.2,299.3c-26.1,0-52.2-0.1-78.2,0.1c-8.5,0.1-14-2-14-12c0-9.7,4.7-12.3,13.6-12.3c53.4,0.2,106.9,0.2,160.3,0
			c8.5,0,13.9,1.7,13.9,11.9c0,9.8-4.7,12.5-13.5,12.4C452.9,299.2,425.6,299.3,398.2,299.3z"/>
		<path d="M641.1,275.2c26.1,0,52.2,0.1,78.4-0.1c8.3-0.1,13.9,1.4,13.9,11.8c0,10-4.6,12.5-13.4,12.4c-52.2-0.1-104.5-0.1-156.7,0
			c-8.4,0-13.9-1.7-14-11.9c-0.1-11.1,6-12.4,14.8-12.3C589.7,275.4,615.4,275.2,641.1,275.2z"/>
		<path d="M650.9,461.6c-22.7,0-45.3-0.2-68,0.1c-8.7,0.1-13.5-2-13.5-12.1c0-10.2,5.4-12.1,13.8-12c45.3,0.1,90.6,0.1,136,0
			c9.2,0,14.2,2.4,14.1,13.1c-0.2,11-6.6,11.1-14.4,11C696.2,461.5,673.6,461.6,650.9,461.6z"/>
		<path d="M863.9,339.8c-13.2,0-26.5-0.2-39.7,0c-9.6,0.1-12.5-4.9-12.4-13.7c0.1-8.9,4.5-12,12.8-11.9c26.9,0.1,53.8,0.1,80.7,0
			c8.4,0,12.4,3.4,12.5,12.2c0.1,9.2-3.6,13.5-12.8,13.4C891.2,339.7,877.6,339.8,863.9,339.8z"/>
		<path d="M601.9,584.1c-13.2,0-26.5-0.1-39.7,0.1c-8,0.1-13-2-12.9-11.5c0.1-8.6,2.3-14.1,12-14.1c27.3,0.1,54.6,0.1,81.9,0
			c9.1,0,11.5,5.2,11.8,13.1c0.3,8.6-3.4,12.6-12.1,12.4C629.2,583.9,615.5,584.1,601.9,584.1z"/>
		<path d="M863.3,299.3c-13.2,0-26.4-0.1-39.6,0c-9,0.1-11.8-4.7-11.8-12.9c0-8.2,3.7-11.3,11.7-11.3c27.3,0.2,54.5,0.2,81.8,0
			c8.6-0.1,12.3,3.2,12.3,12c0,8.8-3.7,12.3-12.3,12.2C891.4,299.1,877.3,299.3,863.3,299.3C863.3,299.3,863.3,299.3,863.3,299.3z"
			/>
		<path d="M602.8,518.9c13.6,0,27.3,0.3,40.9-0.1c8.5-0.3,11.4,3.7,11.3,11.5c0,7.4-2.1,12.5-10.7,12.5c-28.1,0-56.2,0-84.4,0
			c-8.5,0-10.6-4.9-10.6-12.4c0-7.9,2.9-11.8,11.3-11.6C574.6,519.2,588.7,519,602.8,518.9z"/>
		<path d="M865.2,422c-6.8,0-13.6-0.1-20.5,0c-9.2,0.2-12.7-4.2-12.9-13.3c-0.1-9.8,4.5-12.6,13.3-12.4c13.6,0.3,27.3,0.2,40.9,0.1
			c8.4-0.1,11,4.5,10.9,12.2c-0.1,7.1-1.5,13-10.1,13.3c-7.2,0.2-14.5,0-21.7,0C865.2,421.9,865.2,421.9,865.2,422z"/>
		<path d="M1025.6,422c-6,0-11.9-0.2-17.9,0c-9.5,0.3-13.9-3.7-13.9-13.7c0-10,5.1-12.3,13.7-12.1c13.2,0.3,26.4,0.3,39.6,0
			c8.9-0.2,12,4,11.9,12.5c-0.1,8.2-2.8,13.2-11.7,13.1C1040.1,421.9,1032.9,421.9,1025.6,422C1025.6,422,1025.6,422,1025.6,422z"/>
		<path d="M1027,478.4c6.4,0,12.8,0.2,19.2,0c8.2-0.3,12.8,2.4,12.8,11.6c0,8.5-2.2,14.2-12,14.2c-13.6-0.1-27.3-0.1-40.9,0
			c-9.6,0.1-12.2-5.3-12.2-14c0-9.1,4.3-12.1,12.7-11.8C1013.4,478.6,1020.2,478.4,1027,478.4z"/>
		<path d="M865.1,478.4c6,0,11.9,0.2,17.9,0c8.2-0.3,14,1.4,14.1,11.7c0.1,9.9-4.3,14.1-13.7,14.1c-12.8,0-25.5-0.1-38.3,0.1
			c-10,0.2-13.3-4.8-13.2-14.3c0.1-9.2,4.7-11.8,12.8-11.6C851.5,478.6,858.3,478.4,865.1,478.4z"/>
		<path d="M319.1,396.4c6.8,0,13.6,0.1,20.4,0c8.4-0.2,12.5,3.5,12.5,12.2c0,8.2-3.1,13.2-11.7,13.3c-14.5,0.2-28.9,0.1-43.4,0.1
			c-8.8,0-9.9-5.9-10-13c-0.1-7.5,1.7-12.6,10.4-12.5C304.6,396.5,311.8,396.4,319.1,396.4C319.1,396.4,319.1,396.4,319.1,396.4z"/>
		<path d="M319.2,504.2c-5.5,0-11.1-0.2-16.6,0c-9.9,0.4-16.1-2.3-15.9-14.2c0.2-11.6,7.1-11.7,15.2-11.6
			c12.8,0.1,25.5,0.2,38.3,0.1c8-0.1,11.5,3.8,11.7,11.7c0.2,8-2.2,13.5-11.1,13.8c-7.2,0.2-14.4,0-21.7,0
			C319.2,504,319.2,504.1,319.2,504.2z"/>
		<path d="M602.5,478.4c6.4,0,12.8,0.1,19.1,0c8.2-0.2,12.7,2.9,13,11.7c0.2,8.9-3.2,13.8-12.4,13.9c-13.6,0.1-27.2,0-40.8,0.1
			c-9.6,0-11.9-5.5-11.9-14.1c-0.1-9.3,4.5-11.9,12.6-11.6C588.9,478.6,595.7,478.4,602.5,478.4z"/>
		<path d="M319.1,379.5c-6.4,0-12.8-0.2-19.2,0.1c-7.9,0.3-13-1.4-13-11c-0.1-9.4,3.4-13.3,12.7-13.1c13.2,0.3,26.5,0.2,39.7,0.1
			c8.3-0.1,12.7,3.3,12.7,12.1c0.1,8.8-3.7,12.4-12.4,12C332.8,379.2,325.9,379.5,319.1,379.5z"/>
		<path d="M601.1,379.5c-6.4,0-12.8-0.3-19.2,0.1c-8.5,0.5-12.4-2.6-12.4-11.7c0-8.7,3.4-12.5,12.1-12.4c13.2,0.2,26.5,0.2,39.7,0
			c8.9-0.1,13.5,3.2,13.4,12.8c-0.1,9.2-4.9,11.7-13,11.4C614.8,379.3,607.9,379.5,601.1,379.5z"/>
		<path d="M723,379.5c-6.4,0-12.8-0.3-19.2,0.1c-9,0.6-13.4-2.5-13.3-12.3c0.1-9.1,4.3-12,12.6-11.9c13.6,0.2,27.3,0.1,40.9,0.1
			c9,0,11.6,5,11.5,13.2c-0.1,8.5-4.5,11.1-12.2,10.8C736.7,379.3,729.8,379.5,723,379.5z"/>
		<path d="M864.1,379.5c-6.4,0-12.8-0.2-19.2,0.1c-8.1,0.4-12.8-1.9-13-11.2c-0.2-9.5,3.7-13.1,12.9-12.9
			c13.2,0.3,26.4,0.2,39.7,0.1c8.3-0.1,12.5,3.4,12.6,12.2c0.1,8.9-3.9,12.3-12.5,11.8C877.7,379.2,870.9,379.5,864.1,379.5z"/>
		<path d="M319.4,461.6c-6.4,0-12.8-0.3-19.2,0.1c-8.7,0.5-13.4-2-13.4-12c0-10.2,5.3-12.2,13.7-12c13.2,0.2,26.4,0.2,39.7,0.1
			c8.9,0,11.9,4.7,11.8,13c-0.1,8.4-4.3,11.3-12.1,11C333.1,461.4,326.3,461.6,319.4,461.6z"/>
		<path d="M863.7,461.6c-6.4,0-12.8-0.3-19.2,0.1c-8.4,0.4-12.6-2.5-12.6-11.6c0-8.6,3.2-12.6,12-12.5c13.6,0.2,27.3,0.1,40.9,0.1
			c8.5-0.1,12.2,3.9,12.2,12.5c0,9.2-4.6,11.8-12.8,11.4C877.4,461.3,870.5,461.6,863.7,461.6z"/>
		<path d="M1025.6,461.6c-6.8,0-13.6-0.2-20.4,0c-8.3,0.3-11.2-3.8-11.2-11.7c0-7.7,2.9-12.2,11.1-12.2c14,0,28.1,0,42.1-0.1
			c8.8-0.1,11.9,4.4,11.8,12.8c-0.1,8.2-3.6,11.5-11.7,11.2C1040.1,461.3,1032.8,461.6,1025.6,461.6z"/>
		<path d="M1026.3,379.5c-6.8,0-13.6-0.2-20.4,0.1c-7.8,0.3-11.9-2.6-11.9-11c-0.1-8.3,2.8-13.1,11.6-13c14,0.1,28.1,0,42.1,0
			c9.1,0,11.3,5.4,11.2,13.4c0,8.6-4.6,10.9-12.2,10.6C1040,379.3,1033.2,379.5,1026.3,379.5z"/>
	</g>
</g>
</svg>
