<svg xmlns="http://www.w3.org/2000/svg" viewBox="0 0 126.63 100.57"><defs><style>.a{stroke:#231f20;stroke-miterlimit:10;}</style></defs><title>menu</title><path class="a" d="M83.24.5H193.86c4.15,0,7.51,5.37,7.51,12v1.57c0,6.63-3.36,12-7.51,12H83.24c-4.14,0-7.5-5.37-7.5-12V12.5C75.74,5.87,79.1.5,83.24.5Z" transform="translate(-75.24)"/><path class="a" d="M83.24,74.5H193.86c4.15,0,7.51,5.37,7.51,12v1.57c0,6.63-3.36,12-7.51,12H83.24c-4.14,0-7.5-5.37-7.5-12V86.5C75.74,79.87,79.1,74.5,83.24,74.5Z" transform="translate(-75.24)"/><path class="a" d="M83.24,37.5H193.86c4.15,0,7.51,5.37,7.51,12v1.57c0,6.63-3.36,12-7.51,12H83.24c-4.14,0-7.5-5.37-7.5-12V49.5C75.74,42.87,79.1,37.5,83.24,37.5Z" transform="translate(-75.24)"/></svg>